<mxfile host="app.diagrams.net" agent="Mozilla/5.0 (Macintosh; Intel Mac OS X 10.15; rv:141.0) Gecko/20100101 Firefox/141.0" version="28.0.9">
  <diagram name="Page-1" id="plaX9uOSfhJbAC9Uc2Lf">
    <mxGraphModel dx="833" dy="1096" grid="1" gridSize="10" guides="1" tooltips="1" connect="1" arrows="1" fold="1" page="1" pageScale="1" pageWidth="850" pageHeight="1100" math="0" shadow="0">
      <root>
        <mxCell id="0" />
        <mxCell id="1" parent="0" />
        <mxCell id="XphF_kcF2tBXfRpGcLYl-28" style="edgeStyle=orthogonalEdgeStyle;rounded=0;orthogonalLoop=1;jettySize=auto;html=1;exitX=0.5;exitY=1;exitDx=0;exitDy=0;startArrow=classic;startFill=1;endArrow=none;endFill=0;" edge="1" parent="1" source="XphF_kcF2tBXfRpGcLYl-1" target="XphF_kcF2tBXfRpGcLYl-10">
          <mxGeometry relative="1" as="geometry" />
        </mxCell>
        <mxCell id="XphF_kcF2tBXfRpGcLYl-35" value="Отчеты" style="edgeLabel;html=1;align=center;verticalAlign=middle;resizable=0;points=[];" vertex="1" connectable="0" parent="XphF_kcF2tBXfRpGcLYl-28">
          <mxGeometry x="0.06" y="1" relative="1" as="geometry">
            <mxPoint as="offset" />
          </mxGeometry>
        </mxCell>
        <mxCell id="XphF_kcF2tBXfRpGcLYl-1" value="Бизнес аналитик" style="rounded=1;whiteSpace=wrap;html=1;" vertex="1" parent="1">
          <mxGeometry x="350" y="200" width="120" height="60" as="geometry" />
        </mxCell>
        <mxCell id="XphF_kcF2tBXfRpGcLYl-42" style="edgeStyle=orthogonalEdgeStyle;rounded=0;orthogonalLoop=1;jettySize=auto;html=1;exitX=0.5;exitY=0;exitDx=0;exitDy=0;entryX=1;entryY=0.5;entryDx=0;entryDy=0;" edge="1" parent="1" source="XphF_kcF2tBXfRpGcLYl-2" target="XphF_kcF2tBXfRpGcLYl-1">
          <mxGeometry relative="1" as="geometry" />
        </mxCell>
        <mxCell id="XphF_kcF2tBXfRpGcLYl-43" value="&lt;div&gt;Read-only&lt;/div&gt;&lt;div&gt;отчеты&lt;/div&gt;" style="edgeLabel;html=1;align=center;verticalAlign=middle;resizable=0;points=[];" vertex="1" connectable="0" parent="XphF_kcF2tBXfRpGcLYl-42">
          <mxGeometry x="0.0936" y="1" relative="1" as="geometry">
            <mxPoint as="offset" />
          </mxGeometry>
        </mxCell>
        <mxCell id="XphF_kcF2tBXfRpGcLYl-2" value="Legacy BI-система" style="rounded=1;whiteSpace=wrap;html=1;" vertex="1" parent="1">
          <mxGeometry x="580" y="320" width="120" height="60" as="geometry" />
        </mxCell>
        <mxCell id="XphF_kcF2tBXfRpGcLYl-41" style="edgeStyle=orthogonalEdgeStyle;rounded=0;orthogonalLoop=1;jettySize=auto;html=1;exitX=0.5;exitY=0;exitDx=0;exitDy=0;entryX=0.5;entryY=1;entryDx=0;entryDy=0;" edge="1" parent="1" source="XphF_kcF2tBXfRpGcLYl-3" target="XphF_kcF2tBXfRpGcLYl-2">
          <mxGeometry relative="1" as="geometry" />
        </mxCell>
        <mxCell id="XphF_kcF2tBXfRpGcLYl-44" value="Данные" style="edgeLabel;html=1;align=center;verticalAlign=middle;resizable=0;points=[];" vertex="1" connectable="0" parent="XphF_kcF2tBXfRpGcLYl-41">
          <mxGeometry x="-0.3" y="-1" relative="1" as="geometry">
            <mxPoint as="offset" />
          </mxGeometry>
        </mxCell>
        <mxCell id="XphF_kcF2tBXfRpGcLYl-3" value="Legacy DWH" style="rounded=1;whiteSpace=wrap;html=1;" vertex="1" parent="1">
          <mxGeometry x="580" y="440" width="120" height="60" as="geometry" />
        </mxCell>
        <mxCell id="XphF_kcF2tBXfRpGcLYl-38" style="edgeStyle=orthogonalEdgeStyle;rounded=0;orthogonalLoop=1;jettySize=auto;html=1;exitX=0.5;exitY=0;exitDx=0;exitDy=0;entryX=0.5;entryY=1;entryDx=0;entryDy=0;startArrow=classic;startFill=1;" edge="1" parent="1" source="XphF_kcF2tBXfRpGcLYl-4" target="XphF_kcF2tBXfRpGcLYl-9">
          <mxGeometry relative="1" as="geometry" />
        </mxCell>
        <mxCell id="XphF_kcF2tBXfRpGcLYl-40" value="Данные" style="edgeLabel;html=1;align=center;verticalAlign=middle;resizable=0;points=[];" vertex="1" connectable="0" parent="XphF_kcF2tBXfRpGcLYl-38">
          <mxGeometry x="0.0593" y="1" relative="1" as="geometry">
            <mxPoint as="offset" />
          </mxGeometry>
        </mxCell>
        <mxCell id="XphF_kcF2tBXfRpGcLYl-4" value="Интеграционная шина" style="rounded=1;whiteSpace=wrap;html=1;" vertex="1" parent="1">
          <mxGeometry x="350" y="590" width="120" height="60" as="geometry" />
        </mxCell>
        <mxCell id="XphF_kcF2tBXfRpGcLYl-5" value="Финтех-сервисы" style="rounded=1;whiteSpace=wrap;html=1;" vertex="1" parent="1">
          <mxGeometry x="630" y="590" width="120" height="60" as="geometry" />
        </mxCell>
        <mxCell id="XphF_kcF2tBXfRpGcLYl-6" value="ИИ-сервисы" style="rounded=1;whiteSpace=wrap;html=1;" vertex="1" parent="1">
          <mxGeometry x="30" y="590" width="120" height="60" as="geometry" />
        </mxCell>
        <mxCell id="XphF_kcF2tBXfRpGcLYl-22" style="edgeStyle=orthogonalEdgeStyle;rounded=0;orthogonalLoop=1;jettySize=auto;html=1;exitX=0.5;exitY=0;exitDx=0;exitDy=0;entryX=0.5;entryY=1;entryDx=0;entryDy=0;" edge="1" parent="1" source="XphF_kcF2tBXfRpGcLYl-7" target="XphF_kcF2tBXfRpGcLYl-4">
          <mxGeometry relative="1" as="geometry" />
        </mxCell>
        <mxCell id="XphF_kcF2tBXfRpGcLYl-23" value="&lt;div&gt;Данные датчиков,&lt;/div&gt;&lt;div&gt;телеметрия&lt;/div&gt;" style="edgeLabel;html=1;align=center;verticalAlign=middle;resizable=0;points=[];" vertex="1" connectable="0" parent="XphF_kcF2tBXfRpGcLYl-22">
          <mxGeometry x="-0.0424" relative="1" as="geometry">
            <mxPoint as="offset" />
          </mxGeometry>
        </mxCell>
        <mxCell id="XphF_kcF2tBXfRpGcLYl-7" value="&lt;div&gt;Медецинское оборудование,&lt;/div&gt;&lt;div&gt;IoT&lt;/div&gt;" style="rounded=1;whiteSpace=wrap;html=1;" vertex="1" parent="1">
          <mxGeometry x="350" y="760" width="120" height="60" as="geometry" />
        </mxCell>
        <mxCell id="XphF_kcF2tBXfRpGcLYl-26" style="edgeStyle=orthogonalEdgeStyle;rounded=0;orthogonalLoop=1;jettySize=auto;html=1;exitX=1;exitY=0.5;exitDx=0;exitDy=0;entryX=0;entryY=0.75;entryDx=0;entryDy=0;" edge="1" parent="1" source="XphF_kcF2tBXfRpGcLYl-8" target="XphF_kcF2tBXfRpGcLYl-4">
          <mxGeometry relative="1" as="geometry" />
        </mxCell>
        <mxCell id="XphF_kcF2tBXfRpGcLYl-27" value="&lt;div&gt;Поставки,&lt;/div&gt;&lt;div&gt;заказы&lt;/div&gt;" style="edgeLabel;html=1;align=center;verticalAlign=middle;resizable=0;points=[];" vertex="1" connectable="0" parent="XphF_kcF2tBXfRpGcLYl-26">
          <mxGeometry x="-0.0571" y="-2" relative="1" as="geometry">
            <mxPoint as="offset" />
          </mxGeometry>
        </mxCell>
        <mxCell id="XphF_kcF2tBXfRpGcLYl-8" value="Фармацевтика" style="rounded=1;whiteSpace=wrap;html=1;" vertex="1" parent="1">
          <mxGeometry x="30" y="720" width="120" height="60" as="geometry" />
        </mxCell>
        <mxCell id="XphF_kcF2tBXfRpGcLYl-30" style="edgeStyle=orthogonalEdgeStyle;rounded=0;orthogonalLoop=1;jettySize=auto;html=1;exitX=0.5;exitY=0;exitDx=0;exitDy=0;" edge="1" parent="1" source="XphF_kcF2tBXfRpGcLYl-9">
          <mxGeometry relative="1" as="geometry">
            <mxPoint x="410" y="370" as="targetPoint" />
          </mxGeometry>
        </mxCell>
        <mxCell id="XphF_kcF2tBXfRpGcLYl-39" value="Данные для витрины" style="edgeLabel;html=1;align=center;verticalAlign=middle;resizable=0;points=[];" vertex="1" connectable="0" parent="XphF_kcF2tBXfRpGcLYl-30">
          <mxGeometry x="-0.0733" relative="1" as="geometry">
            <mxPoint as="offset" />
          </mxGeometry>
        </mxCell>
        <mxCell id="XphF_kcF2tBXfRpGcLYl-9" value="Data Lakehouse" style="rounded=1;whiteSpace=wrap;html=1;" vertex="1" parent="1">
          <mxGeometry x="350" y="440" width="120" height="60" as="geometry" />
        </mxCell>
        <mxCell id="XphF_kcF2tBXfRpGcLYl-10" value="Витрина данных" style="rounded=1;whiteSpace=wrap;html=1;" vertex="1" parent="1">
          <mxGeometry x="350" y="310" width="120" height="60" as="geometry" />
        </mxCell>
        <mxCell id="XphF_kcF2tBXfRpGcLYl-11" value="" style="endArrow=classic;startArrow=classic;html=1;rounded=0;entryX=0;entryY=0.5;entryDx=0;entryDy=0;exitX=1;exitY=0.5;exitDx=0;exitDy=0;" edge="1" parent="1" source="XphF_kcF2tBXfRpGcLYl-4" target="XphF_kcF2tBXfRpGcLYl-5">
          <mxGeometry width="50" height="50" relative="1" as="geometry">
            <mxPoint x="540" y="670" as="sourcePoint" />
            <mxPoint x="590" y="620" as="targetPoint" />
          </mxGeometry>
        </mxCell>
        <mxCell id="XphF_kcF2tBXfRpGcLYl-13" value="&lt;div&gt;Финансовые&lt;/div&gt;&lt;div&gt;&amp;nbsp;данные&lt;/div&gt;" style="edgeLabel;html=1;align=center;verticalAlign=middle;resizable=0;points=[];" vertex="1" connectable="0" parent="XphF_kcF2tBXfRpGcLYl-11">
          <mxGeometry x="-0.07" y="1" relative="1" as="geometry">
            <mxPoint as="offset" />
          </mxGeometry>
        </mxCell>
        <mxCell id="XphF_kcF2tBXfRpGcLYl-24" style="edgeStyle=orthogonalEdgeStyle;rounded=0;orthogonalLoop=1;jettySize=auto;html=1;exitX=0;exitY=0.5;exitDx=0;exitDy=0;entryX=1;entryY=1;entryDx=0;entryDy=0;" edge="1" parent="1" source="XphF_kcF2tBXfRpGcLYl-16" target="XphF_kcF2tBXfRpGcLYl-4">
          <mxGeometry relative="1" as="geometry" />
        </mxCell>
        <mxCell id="XphF_kcF2tBXfRpGcLYl-25" value="Управление клиниками" style="edgeLabel;html=1;align=center;verticalAlign=middle;resizable=0;points=[];" vertex="1" connectable="0" parent="XphF_kcF2tBXfRpGcLYl-24">
          <mxGeometry x="-0.271" y="1" relative="1" as="geometry">
            <mxPoint y="1" as="offset" />
          </mxGeometry>
        </mxCell>
        <mxCell id="XphF_kcF2tBXfRpGcLYl-16" value="&lt;div&gt;Внутренние&amp;nbsp;&lt;/div&gt;&lt;div&gt;сервисы&lt;/div&gt;" style="rounded=1;whiteSpace=wrap;html=1;" vertex="1" parent="1">
          <mxGeometry x="670" y="690" width="120" height="60" as="geometry" />
        </mxCell>
        <mxCell id="XphF_kcF2tBXfRpGcLYl-17" value="" style="endArrow=classic;startArrow=classic;html=1;rounded=0;exitX=1;exitY=0.5;exitDx=0;exitDy=0;entryX=0;entryY=0.5;entryDx=0;entryDy=0;" edge="1" parent="1" source="XphF_kcF2tBXfRpGcLYl-6" target="XphF_kcF2tBXfRpGcLYl-4">
          <mxGeometry width="50" height="50" relative="1" as="geometry">
            <mxPoint x="400" y="680" as="sourcePoint" />
            <mxPoint x="450" y="630" as="targetPoint" />
          </mxGeometry>
        </mxCell>
        <mxCell id="XphF_kcF2tBXfRpGcLYl-18" value="Медицинские данные" style="edgeLabel;html=1;align=center;verticalAlign=middle;resizable=0;points=[];" vertex="1" connectable="0" parent="XphF_kcF2tBXfRpGcLYl-17">
          <mxGeometry x="0.0075" relative="1" as="geometry">
            <mxPoint as="offset" />
          </mxGeometry>
        </mxCell>
      </root>
    </mxGraphModel>
  </diagram>
</mxfile>
